<?xml version="1.0" standalone="no"?>
<!DOCTYPE svg PUBLIC "-//W3C//DTD SVG 20010904//EN"
 "http://www.w3.org/TR/2001/REC-SVG-20010904/DTD/svg10.dtd">
<svg version="1.0" xmlns="http://www.w3.org/2000/svg"
 width="1363.000000pt" height="227.000000pt" viewBox="0 0 1363.000000 227.000000"
 preserveAspectRatio="xMidYMid meet">
<metadata>
Created by potrace 1.16, written by Peter Selinger 2001-2019
</metadata>
<g transform="translate(0.000000,227.000000) scale(0.100000,-0.100000)"
fill="#000000" stroke="none">
<path d="M0 1135 l0 -1135 6815 0 6815 0 0 1135 0 1135 -6815 0 -6815 0 0
-1135z m2535 1015 c155 -23 371 -89 382 -117 8 -21 -67 -250 -89 -269 -15 -15
-23 -14 -85 9 -394 146 -685 74 -633 -158 24 -105 100 -170 354 -302 281 -145
399 -232 479 -353 58 -89 80 -168 80 -290 1 -118 -15 -183 -64 -269 -160 -279
-620 -355 -1113 -184 -114 39 -126 47 -125 77 0 35 85 250 102 260 12 8 30 5
64 -8 220 -85 333 -110 486 -104 89 3 123 9 165 27 142 63 171 209 63 324 -61
65 -125 108 -306 202 -203 106 -307 174 -391 259 -113 113 -158 223 -157 386
0 104 12 160 49 233 69 138 209 235 393 272 80 16 251 18 346 5z m2345 -5 c10
-9 210 -448 445 -976 337 -756 426 -965 418 -978 -9 -14 -35 -16 -172 -19 -89
-1 -169 2 -179 7 -10 5 -42 71 -76 155 l-58 146 -411 0 -412 0 -54 -138 c-29
-75 -62 -145 -73 -154 -17 -16 -42 -18 -178 -18 -129 0 -161 3 -174 15 -11 11
-13 22 -7 38 33 86 847 1906 859 1920 19 21 50 22 72 2z m2220 -45 c6 -9 10
-211 10 -497 l0 -483 425 0 425 0 0 490 c0 458 1 491 18 498 9 4 80 7 158 7
105 0 145 -4 157 -14 16 -12 17 -92 17 -962 0 -927 0 -949 -19 -959 -26 -13
-286 -13 -312 0 -18 10 -19 24 -19 315 l0 305 -425 0 -425 0 0 -305 c0 -291
-1 -305 -19 -315 -26 -13 -286 -13 -312 0 -19 10 -19 32 -19 958 0 521 4 952
8 958 12 19 42 23 185 21 110 -2 140 -5 147 -17z m2707 7 c4 -5 11 -311 14
-680 6 -717 5 -713 57 -812 58 -114 210 -177 384 -161 138 13 232 64 281 154
57 104 57 108 57 817 0 547 2 654 14 671 13 17 27 19 170 19 114 0 158 -3 168
-13 10 -10 13 -151 13 -705 0 -637 -1 -698 -18 -772 -56 -241 -207 -393 -464
-467 -70 -21 -100 -23 -278 -23 -200 0 -200 0 -295 33 -128 45 -193 83 -270
161 -73 73 -127 168 -157 271 -17 60 -18 117 -18 780 l0 714 25 14 c28 14 302
14 317 -1z"/>
<path d="M4701 1134 c-79 -195 -141 -357 -139 -360 3 -2 134 -3 291 -2 l285 3
-140 350 c-77 193 -143 353 -147 357 -4 4 -71 -152 -150 -348z"/>
</g>
</svg>
